<svg width="180" height="60" viewBox="0 0 180 60" fill="none" xmlns="http://www.w3.org/2000/svg">
<rect width="180" height="60" fill="white"/>
<path d="M27.4102 39H22.7812V25.6523H18.5977V21.8672H31.582V25.6523H27.4102V39ZM52.5352 39H47.0625L45.4219 31.5352C45.3438 31.2227 45.2188 30.6016 45.0469 29.6719C44.8828 28.7422 44.7617 27.9648 44.6836 27.3398C44.6211 27.8477 44.5195 28.4805 44.3789 29.2383C44.2383 29.9883 44.0977 30.6797 43.957 31.3125C43.8242 31.9453 43.2578 34.5078 42.2578 39H36.7852L32.543 21.8672H37.0078L38.8711 30.457C39.293 32.3555 39.582 33.8672 39.7383 34.9922C39.8398 34.1953 40.0195 33.1133 40.2773 31.7461C40.543 30.3789 40.7891 29.2461 41.0156 28.3477L42.5273 21.8672H46.8164L48.2812 28.3477C48.5312 29.3867 48.7852 30.5859 49.043 31.9453C49.3008 33.3047 49.4727 34.3203 49.5586 34.9922C49.6602 34.125 49.9375 32.6211 50.3906 30.4805L52.2891 21.8672H56.7539L52.5352 39Z" fill="#111111"/>
<path d="M68.9531 34.9219C68.9531 36.3438 68.4688 37.418 67.5 38.1445C66.5312 38.8711 65.1406 39.2344 63.3281 39.2344C62.3438 39.2344 61.4883 39.1797 60.7617 39.0703C60.0352 38.9688 59.293 38.7773 58.5352 38.4961V34.8281C59.2461 35.1406 60.0234 35.3984 60.8672 35.6016C61.7188 35.8047 62.4766 35.9062 63.1406 35.9062C64.1328 35.9062 64.6289 35.6797 64.6289 35.2266C64.6289 34.9922 64.4883 34.7852 64.207 34.6055C63.9336 34.418 63.1289 34.0586 61.793 33.5273C60.5742 33.0273 59.7227 32.4609 59.2383 31.8281C58.7539 31.1875 58.5117 30.3789 58.5117 29.4023C58.5117 28.168 58.9883 27.207 59.9414 26.5195C60.8945 25.832 62.2422 25.4883 63.9844 25.4883C64.8594 25.4883 65.6797 25.5859 66.4453 25.7812C67.2188 25.9688 68.0195 26.2461 68.8477 26.6133L67.6055 29.5664C66.9961 29.293 66.3516 29.0625 65.6719 28.875C64.9922 28.6797 64.4375 28.582 64.0078 28.582C63.2578 28.582 62.8828 28.7656 62.8828 29.1328C62.8828 29.3594 63.0117 29.5547 63.2695 29.7188C63.5352 29.875 64.293 30.1992 65.543 30.6914C66.4727 31.0742 67.1641 31.4492 67.6172 31.8164C68.0781 32.1836 68.4141 32.6172 68.625 33.1172C68.8438 33.6094 68.9531 34.2109 68.9531 34.9219ZM78 35.6133C78.6172 35.6133 79.3555 35.4609 80.2148 35.1562V38.4961C79.5977 38.7617 79.0078 38.9492 78.4453 39.0586C77.8906 39.1758 77.2383 39.2344 76.4883 39.2344C74.9492 39.2344 73.8398 38.8594 73.1602 38.1094C72.4805 37.3516 72.1406 36.1914 72.1406 34.6289V29.1562H70.5352V27.293L72.5742 25.8516L73.7578 23.0625H76.7578V25.7227H80.0156V29.1562H76.7578V34.3242C76.7578 35.1836 77.1719 35.6133 78 35.6133ZM91.1953 39L90.3164 37.2422H90.2227C89.6055 38.0078 88.9766 38.5312 88.3359 38.8125C87.6953 39.0938 86.8672 39.2344 85.8516 39.2344C84.6016 39.2344 83.6172 38.8594 82.8984 38.1094C82.1797 37.3594 81.8203 36.3047 81.8203 34.9453C81.8203 33.5312 82.3125 32.4805 83.2969 31.793C84.2812 31.0977 85.707 30.707 87.5742 30.6211L89.7891 30.5508V30.3633C89.7891 29.2695 89.25 28.7227 88.1719 28.7227C87.2031 28.7227 85.9727 29.0508 84.4805 29.707L83.1562 26.6836C84.7031 25.8867 86.6562 25.4883 89.0156 25.4883C90.7188 25.4883 92.0352 25.9102 92.9648 26.7539C93.9023 27.5977 94.3711 28.7773 94.3711 30.293V39H91.1953ZM87.7969 36C88.3516 36 88.8242 35.8242 89.2148 35.4727C89.6133 35.1211 89.8125 34.6641 89.8125 34.1016V33.0703L88.7578 33.1172C87.25 33.1719 86.4961 33.7266 86.4961 34.7812C86.4961 35.5938 86.9297 36 87.7969 36ZM105.504 25.4883C105.902 25.4883 106.281 25.5195 106.641 25.582L106.898 25.6289L106.488 29.9531C106.113 29.8594 105.594 29.8125 104.93 29.8125C103.93 29.8125 103.203 30.043 102.75 30.5039C102.297 30.957 102.07 31.6133 102.07 32.4727V39H97.4883V25.7227H100.898L101.613 27.8438H101.836C102.219 27.1406 102.75 26.5742 103.43 26.1445C104.117 25.707 104.809 25.4883 105.504 25.4883ZM115.266 35.6133C115.883 35.6133 116.621 35.4609 117.48 35.1562V38.4961C116.863 38.7617 116.273 38.9492 115.711 39.0586C115.156 39.1758 114.504 39.2344 113.754 39.2344C112.215 39.2344 111.105 38.8594 110.426 38.1094C109.746 37.3516 109.406 36.1914 109.406 34.6289V29.1562H107.801V27.293L109.84 25.8516L111.023 23.0625H114.023V25.7227H117.281V29.1562H114.023V34.3242C114.023 35.1836 114.438 35.6133 115.266 35.6133ZM129.258 39L128.684 37.3477H128.414C128.031 37.957 127.496 38.4258 126.809 38.7539C126.129 39.0742 125.328 39.2344 124.406 39.2344C122.945 39.2344 121.809 38.8125 120.996 37.9688C120.184 37.1172 119.777 35.918 119.777 34.3711V25.7227H124.359V32.9766C124.359 33.8438 124.48 34.5 124.723 34.9453C124.973 35.3906 125.379 35.6133 125.941 35.6133C126.73 35.6133 127.293 35.3047 127.629 34.6875C127.965 34.0625 128.133 33.0117 128.133 31.5352V25.7227H132.715V39H129.258ZM143.848 39.2344C143.176 39.2344 142.574 39.125 142.043 38.9062C141.512 38.6797 140.984 38.2773 140.461 37.6992H140.25C140.391 38.6289 140.461 39.207 140.461 39.4336V44.7656H135.879V25.7227H139.605L140.25 27.4102H140.461C141.312 26.1289 142.488 25.4883 143.988 25.4883C145.457 25.4883 146.609 26.0977 147.445 27.3164C148.281 28.5352 148.699 30.207 148.699 32.332C148.699 34.4727 148.262 36.1602 147.387 37.3945C146.52 38.6211 145.34 39.2344 143.848 39.2344ZM142.312 29.0859C141.641 29.0859 141.168 29.3281 140.895 29.8125C140.629 30.2891 140.484 31 140.461 31.9453V32.3086C140.461 33.4492 140.613 34.2734 140.918 34.7812C141.223 35.2891 141.703 35.543 142.359 35.543C142.945 35.543 143.371 35.293 143.637 34.793C143.902 34.2852 144.035 33.4492 144.035 32.2852C144.035 31.1445 143.902 30.3281 143.637 29.8359C143.371 29.3359 142.93 29.0859 142.312 29.0859ZM161.578 34.9219C161.578 36.3438 161.094 37.418 160.125 38.1445C159.156 38.8711 157.766 39.2344 155.953 39.2344C154.969 39.2344 154.113 39.1797 153.387 39.0703C152.66 38.9688 151.918 38.7773 151.16 38.4961V34.8281C151.871 35.1406 152.648 35.3984 153.492 35.6016C154.344 35.8047 155.102 35.9062 155.766 35.9062C156.758 35.9062 157.254 35.6797 157.254 35.2266C157.254 34.9922 157.113 34.7852 156.832 34.6055C156.559 34.418 155.754 34.0586 154.418 33.5273C153.199 33.0273 152.348 32.4609 151.863 31.8281C151.379 31.1875 151.137 30.3789 151.137 29.4023C151.137 28.168 151.613 27.207 152.566 26.5195C153.52 25.832 154.867 25.4883 156.609 25.4883C157.484 25.4883 158.305 25.5859 159.07 25.7812C159.844 25.9688 160.645 26.2461 161.473 26.6133L160.23 29.5664C159.621 29.293 158.977 29.0625 158.297 28.875C157.617 28.6797 157.062 28.582 156.633 28.582C155.883 28.582 155.508 28.7656 155.508 29.1328C155.508 29.3594 155.637 29.5547 155.895 29.7188C156.16 29.875 156.918 30.1992 158.168 30.6914C159.098 31.0742 159.789 31.4492 160.242 31.8164C160.703 32.1836 161.039 32.6172 161.25 33.1172C161.469 33.6094 161.578 34.2109 161.578 34.9219Z" fill="#54D1DB"/>
</svg>
